# xmcd CD database file
#
# Track frame offsets:
#	150
#	21120
#	36921
#	53986
#	76620
#	98504
#	121116
#	139156
#	161142
#
# Disc length: 2358 seconds
#
# Revision: 2
# Processed by: cddbd v1.5.2PL0 Copyright (c) Steve Scherf et al.
# Submitted via: CDex 2.23
#
DISCID=67093409
DTITLE=Lazy Eye  - Whisky and Gin
DYEAR=2019
DGENRE=Blues
TTITLE0=Whisky and Gin
TTITLE1=Game Over
TTITLE2=Can We Still Be Friends
TTITLE3=Please Don't Leave
TTITLE4=No Nothin'
TTITLE5=Lay It Down
TTITLE6=Don't Call The Doctor
TTITLE7=Soulship 
TTITLE8=Close
EXTD=YEAR: 2019
EXTT0=
EXTT1=
EXTT2=
EXTT3=
EXTT4=
EXTT5=
EXTT6=
EXTT7=
EXTT8=
PLAYORDER=
